<?xml version="1.0" encoding="UTF-8"?>
<svg id="Capa_1" data-name="Capa 1" xmlns="http://www.w3.org/2000/svg" viewBox="0 0 90.4 30">
  <defs>
    <style>
      .cls-1 {
        fill: #fff;
      }
    </style>
  </defs>
  <path class="cls-1" d="m-.1,29L12.3,1h7.8l12.5,28h-8.3L14.6,4.8h3.1l-9.7,24.2H-.1Zm6.8-5.5l2-5.8h13.7l2,5.8H6.7Z"/>
  <path class="cls-1" d="m48.4,29.6c-2.2,0-4.3-.4-6.1-1.1-1.9-.7-3.5-1.7-4.9-3s-2.5-2.8-3.2-4.6c-.8-1.8-1.2-3.8-1.2-5.9s.4-4.1,1.2-5.9c.8-1.8,1.9-3.3,3.2-4.6,1.4-1.3,3-2.3,4.9-3,1.9-.7,3.9-1.1,6.1-1.1,2.6,0,4.9.4,7,1.3,2,.9,3.8,2.2,5.1,4l-5.1,4.6c-.9-1.1-1.9-1.9-3-2.4-1-.6-2.2-.9-3.6-.9-1.2,0-2.2.2-3.2.6s-1.8.9-2.5,1.6-1.2,1.6-1.6,2.5c-.4,1-.6,2.1-.6,3.3s.2,2.3.6,3.3c.4,1,.9,1.8,1.6,2.5s1.5,1.3,2.5,1.6c1,.4,2,.6,3.2.6,1.3,0,2.5-.3,3.6-.8,1.1-.6,2.1-1.4,3-2.5l5.1,4.6c-1.4,1.7-3.1,3.1-5.1,4-2,.8-4.4,1.3-7,1.3Z"/>
  <path class="cls-1" d="m60.7,29l12.3-17v5.7L61.1,1h8.9l7.5,10.9h-3.8l7.5-10.9h8.5l-11.7,16.3v-5.6l12.4,17.3h-9.1l-7.7-11.4h3.7l-7.6,11.4h-9Z"/>
</svg>